<svg width="474.750048828125px" height="129.22501220703123px" xmlns="http://www.w3.org/2000/svg" viewBox="12.624975585937506 10.387493896484386 474.750048828125 129.22501220703123" style="background: none;" preserveAspectRatio="xMidYMid"><defs><filter id="editing-hover" x="-100%" y="-100%" width="300%" height="300%"><feFlood flood-color="rgba(100%,100%,100%,0)" result="flood"></feFlood><feComposite operator="in" in2="SourceAlpha" in="flood" result="shadow"></feComposite><feOffset dx="-0.6" dy="-4" in="SourceGraphic" result="offset-1"></feOffset><feOffset dx="0.6" dy="4" in="shadow" result="offset-2"></feOffset><feMerge><feMergeNode in="offset-2"></feMergeNode><feMergeNode in="offset-1"></feMergeNode></feMerge></filter></defs><g filter="url(#editing-hover)"><g transform="translate(83.13616490364075, 107.80046463012695)"><path d="M16.45-3.20L16.45-3.20L16.45-41.92L6.46-41.92L4.61-32.77L4.61-32.77Q3.07-32.51 2.05-32.96L2.05-32.96L2.05-32.96Q1.22-40.32 1.41-44.80L1.41-44.80L38.85-44.80L38.85-44.80Q39.04-39.68 38.14-32.96L38.14-32.96L38.14-32.96Q37.12-32.51 35.58-32.77L35.58-32.77L33.73-41.92L23.17-41.92L23.17-3.20L28.48-1.92L28.48-1.92Q28.67-0.70 28.16 0.32L28.16 0.32L28.16 0.32Q22.40 0 19.97 0L19.97 0L19.97 0Q17.09 0 11.20 0.32L11.20 0.32L11.20 0.32Q11.01-0.96 11.33-1.92L11.33-1.92L11.33-1.92Q13.82-2.24 16.45-3.20ZM43.26 17.22L43.26 17.22L43.26 17.22Q40.06 12.48 39.62 9.02L39.62 9.02L39.62 9.02Q40.83 8.19 42.05 8.13L42.05 8.13L46.14 12.93L46.14 12.93Q49.73 9.41 53.12 0.26L53.12 0.26L41.47-28.80L36.54-30.08L36.54-30.08Q36.35-31.30 36.86-32.32L36.86-32.32L36.86-32.32Q42.62-32 44.42-32L44.42-32L44.42-32Q46.40-32 52.35-32.32L52.35-32.32L52.35-32.32Q52.54-31.10 52.22-30.08L52.22-30.08L52.22-30.08Q48.58-29.31 47.81-28.80L47.81-28.80L53.12-15.94L53.12-15.94Q55.81-9.47 56.38-6.02L56.38-6.02L56.58-6.02L56.58-6.02Q56.64-6.27 57.02-7.90L57.02-7.90L57.02-7.90Q57.41-9.54 57.86-11.07L57.86-11.07L57.86-11.07Q58.30-12.61 59.07-14.53L59.07-14.53L64.51-28.80L60.10-30.08L60.10-30.08Q59.90-31.30 60.42-32.32L60.42-32.32L60.42-32.32Q64.70-32 66.69-32L66.69-32L66.69-32Q68.93-32 72.90-32.32L72.90-32.32L72.90-32.32Q73.09-31.10 72.77-30.08L72.77-30.08L72.77-30.08Q69.06-29.31 68.35-28.80L68.35-28.80L55.81 3.01L55.81 3.01Q53.18 9.66 49.86 13.47L49.86 13.47L49.86 13.47Q46.53 17.28 43.26 17.22ZM84.29-47.68L84.29-47.68L84.29-3.20L89.22-1.92L89.22-1.92Q89.41-0.70 88.90 0.32L88.90 0.32L88.90 0.32Q83.14 0 81.09 0L81.09 0L81.09 0Q79.23 0 73.28 0.32L73.28 0.32L73.28 0.32Q73.09-0.90 73.41-1.92L73.41-1.92L73.41-1.92Q76.99-2.82 77.89-3.20L77.89-3.20L77.89-43.90L72.58-44.42L72.58-44.42Q72.38-45.70 72.90-46.66L72.90-46.66L72.90-46.66Q78.21-47.42 81.86-48.38L81.86-48.38L81.86-48.38Q82.94-48.32 84.29-47.68ZM118.46-17.09L99.14-17.28L99.14-16L99.14-16Q99.14-9.60 101.73-6.02L101.73-6.02L101.73-6.02Q104.32-2.43 108.80-2.43L108.80-2.43L108.80-2.43Q111.68-2.43 113.41-2.98L113.41-2.98L113.41-2.98Q115.14-3.52 117.76-5.31L117.76-5.31L117.76-5.31Q118.78-4.86 118.91-3.78L118.91-3.78L118.91-3.78Q114.50 1.02 108.61 1.09L108.61 1.09L108.61 1.09Q101.25 1.09 96.83-3.52L96.83-3.52L96.83-3.52Q92.42-8.13 92.35-16L92.35-16L92.35-16Q92.42-24.06 96.99-28.58L96.99-28.58L96.99-28.58Q101.57-33.09 108.29-33.09L108.29-33.09L108.29-33.09Q113.73-33.09 116.58-29.41L116.58-29.41L116.58-29.41Q119.42-25.73 119.42-19.46L119.42-19.46L119.42-19.46Q119.42-18.37 119.36-17.79L119.36-17.79L118.46-17.09ZM108.22-30.34L108.22-30.34L108.22-30.34Q105.22-30.34 102.69-27.62L102.69-27.62L102.69-27.62Q100.16-24.90 99.39-19.90L99.39-19.90L113.34-20.67L113.34-20.67Q113.34-25.79 112.22-28.06L112.22-28.06L112.22-28.06Q111.10-30.34 108.22-30.34ZM134.53-21.57L134.53-21.57L134.53-3.20L140.74-1.92L140.74-1.92Q140.93-0.70 140.42 0.32L140.42 0.32L140.42 0.32Q134.66 0 131.33 0L131.33 0L131.33 0Q128.77 0 123.52 0.32L123.52 0.32L123.52 0.32Q123.33-0.90 123.65-1.92L123.65-1.92L123.65-1.92Q127.23-2.69 128.13-3.20L128.13-3.20L128.13-28.16L122.82-28.67L122.82-28.67Q122.62-29.95 123.14-30.91L123.14-30.91L123.14-30.91Q128.45-31.68 132.10-32.64L132.10-32.64L132.10-32.64Q132.80-32.64 134.21-31.94L134.21-31.94L134.21-26.11L134.27-26.05L134.27-26.05Q139.01-33.09 144.00-33.09L144.00-33.09L144.00-33.09Q146.56-33.15 148.22-32.13L148.22-32.13L148.22-32.13Q148.42-27.39 146.94-22.53L146.94-22.53L146.94-22.53Q145.34-22.34 144.06-22.78L144.06-22.78L143.17-29.18L143.17-29.18Q137.86-29.18 134.53-21.57ZM180.93 1.22L180.93 1.22L180.93 1.22Q172.29 1.22 167.55-1.02L167.55-1.02L167.55-1.02Q167.55-6.72 169.22-12.16L169.22-12.16L169.22-12.16Q169.34-12.16 169.60-12.19L169.60-12.19L169.60-12.19Q169.86-12.22 170.05-12.22L170.05-12.22L170.05-12.22Q171.20-12.22 172.03-11.84L172.03-11.84L173.06-3.33L173.06-3.33Q177.09-2.37 179.97-2.37L179.97-2.37L179.97-2.37Q182.21-2.37 184.58-2.88L184.58-2.88L184.58-2.88Q186.94-3.39 188.70-4.99L188.70-4.99L188.70-4.99Q190.46-6.59 190.46-9.34L190.46-9.34L190.46-9.34Q190.46-11.84 189.73-13.38L189.73-13.38L189.73-13.38Q188.99-14.91 186.34-16.74L186.34-16.74L186.34-16.74Q183.68-18.56 178.05-20.99L178.05-20.99L178.05-20.99Q172.29-23.55 169.95-26.46L169.95-26.46L169.95-26.46Q167.62-29.38 167.74-34.30L167.74-34.30L167.74-34.30Q167.81-39.94 172.48-42.88L172.48-42.88L172.48-42.88Q177.15-45.82 184.19-45.82L184.19-45.82L184.19-45.82Q190.14-45.82 195.07-43.90L195.07-43.90L195.07-43.90Q195.26-39.04 193.09-33.09L193.09-33.09L193.09-33.09Q192.83-33.02 192.26-33.02L192.26-33.02L192.26-33.02Q191.17-33.02 190.27-33.41L190.27-33.41L189.57-41.92L189.57-41.92Q186.69-42.75 183.81-42.75L183.81-42.75L183.81-42.75Q179.58-42.75 176.74-40.93L176.74-40.93L176.74-40.93Q173.89-39.10 173.82-35.39L173.82-35.39L173.82-35.39Q173.76-32.45 175.52-30.59L175.52-30.59L175.52-30.59Q177.28-28.74 182.98-26.18L182.98-26.18L182.98-26.18Q187.14-24.32 189.44-23.07L189.44-23.07L189.44-23.07Q191.74-21.82 193.63-20.13L193.63-20.13L193.63-20.13Q195.52-18.43 196.35-16.26L196.35-16.26L196.35-16.26Q197.18-14.08 197.18-11.14L197.18-11.14L197.18-11.14Q197.06-5.18 192.26-1.98L192.26-1.98L192.26-1.98Q187.46 1.22 180.93 1.22ZM211.84-32.06L211.84-32.06L211.65-27.71L211.71-27.65L211.71-27.65Q216.83-32.90 223.10-33.02L223.10-33.02L223.10-33.02Q229.57-32.96 231.49-27.65L231.49-27.65L231.49-27.65Q236.29-33.09 242.30-33.02L242.30-33.02L242.30-33.02Q246.53-33.02 248.90-30.62L248.90-30.62L248.90-30.62Q251.26-28.22 251.26-23.74L251.26-23.74L251.33-3.20L255.81-1.92L255.81-1.92Q256-0.70 255.49 0.32L255.49 0.32L255.49 0.32Q249.73 0 248.13 0L248.13 0L248.13 0Q246.46 0 240.58 0.32L240.58 0.32L240.58 0.32Q240.38-0.90 240.70-1.92L240.70-1.92L240.70-1.92Q242.69-2.30 244.93-3.20L244.93-3.20L244.93-20.86L244.93-20.86Q244.93-25.09 243.62-26.75L243.62-26.75L243.62-26.75Q242.30-28.42 239.30-28.42L239.30-28.42L239.30-28.42Q235.65-28.35 232.06-24.26L232.06-24.26L232.13-3.20L236.61-1.92L236.61-1.92Q236.80-0.70 236.29 0.32L236.29 0.32L236.29 0.32Q230.98 0 228.93 0L228.93 0L228.93 0Q226.94 0 221.38 0.32L221.38 0.32L221.38 0.32Q221.18-0.90 221.50-1.92L221.50-1.92L221.50-1.92Q223.49-2.30 225.73-3.20L225.73-3.20L225.73-20.86L225.73-20.86Q225.73-25.09 224.42-26.82L224.42-26.82L224.42-26.82Q223.10-28.54 220.10-28.54L220.10-28.54L220.10-28.54Q216.58-28.48 212.16-24.70L212.16-24.70L212.16-3.20L216.45-1.92L216.45-1.92Q216.64-0.70 216.13 0.32L216.13 0.32L216.13 0.32Q211.01 0 208.96 0L208.96 0L208.96 0Q206.66 0 201.15 0.32L201.15 0.32L201.15 0.32Q200.96-0.90 201.28-1.92L201.28-1.92L201.28-1.92Q204.35-2.69 205.76-3.20L205.76-3.20L205.76-28.16L200.45-28.67L200.45-28.67Q200.26-29.95 200.77-30.91L200.77-30.91L200.77-30.91Q205.70-31.74 209.66-32.64L209.66-32.64L209.66-32.64Q210.75-32.58 211.84-32.06ZM260.61-42.82L260.61-42.82L260.61-42.82Q260.61-44.03 262.08-45.31L262.08-45.31L262.08-45.31Q263.55-46.59 265.15-46.59L265.15-46.59L265.15-46.59Q266.75-46.59 267.90-45.15L267.90-45.15L267.90-45.15Q269.06-43.71 269.06-42.24L269.06-42.24L269.06-42.24Q269.06-40.96 267.62-39.71L267.62-39.71L267.62-39.71Q266.18-38.46 264.51-38.46L264.51-38.46L264.51-38.46Q263.04-38.46 261.82-39.90L261.82-39.90L261.82-39.90Q260.61-41.34 260.61-42.82ZM269.44-31.94L269.44-31.94L269.44-3.20L273.73-1.92L273.73-1.92Q273.92-0.70 273.41 0.32L273.41 0.32L273.41 0.32Q267.65 0 266.24 0L266.24 0L266.24 0Q264.32 0 258.43 0.32L258.43 0.32L258.43 0.32Q258.24-0.90 258.56-1.92L258.56-1.92L258.56-1.92Q262.14-2.75 263.04-3.20L263.04-3.20L263.04-28.16L257.73-28.67L257.73-28.67Q257.54-29.95 258.05-30.91L258.05-30.91L258.05-30.91Q263.36-31.68 267.01-32.64L267.01-32.64L267.01-32.64Q268.10-32.58 269.44-31.94ZM288.00 1.02L288.00 1.02L288.00 1.02Q284.42 1.02 282.59-1.02L282.59-1.02L282.59-1.02Q280.77-3.07 280.77-7.62L280.77-7.62L280.77-28.03L276.29-28.03L276.29-28.03Q275.65-29.25 275.97-30.91L275.97-30.91L275.97-30.91Q279.55-30.85 280.99-32.35L280.99-32.35L280.99-32.35Q282.43-33.86 283.65-38.72L283.65-38.72L287.04-38.72L287.04-31.55L293.76-31.55L293.76-31.55Q294.66-29.70 293.76-28.03L293.76-28.03L287.04-28.03L287.04-9.22L287.04-9.22Q287.04-4.93 287.71-3.52L287.71-3.52L287.71-3.52Q288.38-2.11 290.24-2.18L290.24-2.18L290.24-2.18Q291.84-2.18 294.08-3.46L294.08-3.46L294.08-3.46Q294.98-2.88 295.04-1.54L295.04-1.54L295.04-1.54Q294.21-0.58 292.32 0.22L292.32 0.22L292.32 0.22Q290.43 1.02 288.00 1.02ZM307.39-47.68L307.39-47.68L307.39-28.48L307.71-28.48L307.71-28.48Q313.09-33.28 318.21-33.28L318.21-33.28L318.21-33.28Q323.26-33.28 325.76-30.62L325.76-30.62L325.76-30.62Q328.26-27.97 328.26-23.30L328.26-23.30L328.26-3.20L332.86-1.92L332.86-1.92Q333.06-0.70 332.54 0.32L332.54 0.32L332.54 0.32Q326.78 0 325.06 0L325.06 0L325.06 0Q323.14 0 317.25 0.32L317.25 0.32L317.25 0.32Q317.06-0.90 317.38-1.92L317.38-1.92L317.38-1.92Q320.58-2.56 321.86-3.20L321.86-3.20L321.86-22.34L321.86-22.34Q321.86-25.98 320.22-27.42L320.22-27.42L320.22-27.42Q318.59-28.86 315.65-28.80L315.65-28.80L315.65-28.80Q313.60-28.80 311.39-27.78L311.39-27.78L311.39-27.78Q309.18-26.75 307.71-25.09L307.71-25.09L307.71-3.20L312.00-1.92L312.00-1.92Q312.19-0.70 311.68 0.32L311.68 0.32L311.68 0.32Q305.92 0 304.51 0L304.51 0L304.51 0Q302.66 0 296.70 0.32L296.70 0.32L296.70 0.32Q296.51-0.90 296.83-1.92L296.83-1.92L296.83-1.92Q300.42-2.75 301.31-3.20L301.31-3.20L301.31-43.90L296.00-44.42L296.00-44.42Q295.81-45.70 296.32-46.66L296.32-46.66L296.32-46.66Q300.93-47.36 304.96-48.38L304.96-48.38L304.96-48.38Q306.05-48.32 307.39-47.68Z" fill="#ffd5af"></path></g></g><style>text {
  font-size: 64px;
  font-family: Arial Black;
  dominant-baseline: central;
  text-anchor: middle;
}</style></svg>