<svg xmlns="http://www.w3.org/2000/svg"  viewBox="0 0 100 100" width="100px" height="100px"><path fill="#c7ede6" d="M87.215,56.71C88.35,54.555,89,52.105,89,49.5c0-6.621-4.159-12.257-10.001-14.478 C78.999,35.015,79,35.008,79,35c0-11.598-9.402-21-21-21c-9.784,0-17.981,6.701-20.313,15.757C36.211,29.272,34.638,29,33,29 c-7.692,0-14.023,5.793-14.89,13.252C12.906,43.353,9,47.969,9,53.5C9,59.851,14.149,65,20.5,65c0.177,0,0.352-0.012,0.526-0.022 C21.022,65.153,21,65.324,21,65.5C21,76.822,30.178,86,41.5,86c6.437,0,12.175-2.972,15.934-7.614C59.612,80.611,62.64,82,66,82 c4.65,0,8.674-2.65,10.666-6.518C77.718,75.817,78.837,76,80,76c6.075,0,11-4.925,11-11C91,61.689,89.53,58.727,87.215,56.71z"/><path fill="#fdfcef" d="M21.875,50v-0.5H7c-2.481,0-4.5-2.019-4.5-4.5c0-2.422,1.895-4.396,4.313-4.496l0.677-0.027 l0.226-0.64C8.208,38.439,9.527,37.5,11,37.5c0.41,0,0.812,0.072,1.194,0.215l1.189,0.442l0.152-1.26 c0.303-2.507,2.437-4.397,4.964-4.397c2.047,0,3.916,1.288,4.649,3.206l0.438,1.144l1.033-0.657C25.332,35.739,26.155,35.5,27,35.5 c2.402,0,4.377,1.879,4.494,4.276l0.035,0.721l0.695,0.193C34.153,41.228,33.5,43,33.5,45c0,2.481-0.019,4.5-2.5,4.5h-6.125V50 H21.875z"/><path fill="#fdfcef" d="M24.875,49.5c0,0,3.64,0,6.125,0s1-2.015,1-4.5c0-2.333,1.718-4.229-0.555-4.455 C31.467,40.364,31.5,40.187,31.5,40c0-2.485-2.015-4.5-4.5-4.5c-1.438,0-2.703,0.686-3.527,1.736 C23.333,34.6,21.171,32.5,18.5,32.5c-2.761,0-5,2.239-5,5c0,0.446,0.077,0.87,0.187,1.282C13.045,38.005,12.086,37.5,11,37.5 c-1.781,0-3.234,1.335-3.455,3.055C7.364,40.533,7.187,40.5,7,40.5c-2.485,0-4.5,2.015-4.5,4.5s2.015,4.5,4.5,4.5s9.5,0,9.5,0 h5.375V50h3V49.5z"/><path fill="#472b29" d="M24.875,50c-0.275,0-0.5-0.225-0.5-0.5s0.225-0.5,0.5-0.5H31c2.206,0,2-1.794,2-4 c0-2.052,0.449-3.754-1.606-3.958c-0.13-0.013-0.256-0.081-0.338-0.184c-0.083-0.104-0.123-0.243-0.106-0.373l0.019-0.142 C30.99,40.189,31,40.096,31,40c0-2.206-1.794-4-4-4c-1.22,0-2.362,0.562-3.133,1.544c-0.094,0.121-0.243,0.193-0.393,0.193 c-0.049,0-0.101-0.008-0.151-0.024c-0.194-0.061-0.338-0.245-0.35-0.448C22.847,34.874,20.881,33,18.5,33 c-2.481,0-4.5,2.019-4.5,4.5c0,0.353,0.054,0.719,0.169,1.154c0.059,0.221-0.05,0.468-0.253,0.57 c-0.073,0.039-0.154,0.058-0.229,0.058c-0.148,0-0.289-0.066-0.385-0.182C12.724,38.401,11.884,38,11,38 c-1.496,0-2.769,1.126-2.959,2.618c-0.032,0.247-0.245,0.437-0.495,0.437L7.331,41.03C7.189,41.01,7.096,41,7,41 c-2.206,0-4,1.794-4,4s1.794,4,4,4h14.875c0.275,0,0.5,0.225,0.5,0.5s-0.225,0.5-0.5,0.5H7c-2.757,0-5-2.243-5-5 c0-2.589,1.941-4.729,4.516-4.978l0.591-0.057l0.232-0.545C7.969,37.95,9.405,37,11,37c0.309,0,0.617,0.036,0.916,0.108l0.994,0.24 l0.218-1C13.675,33.829,15.934,32,18.5,32c2.113,0,3.999,1.18,4.923,3.078l0.444,0.913l0.906-0.458C25.463,35.185,26.232,35,27,35 c2.561,0,4.697,1.917,4.971,4.459l0.067,0.631l0.601,0.207C34.649,40.99,34,42.88,34,45c0,2.757-0.243,5-3,5H24.875z"/><path fill="#472b29" d="M18.5,32c-3.033,0-5.5,2.467-5.5,5.5c0,0.016,0,0.031,0,0.047C12.398,37.192,11.71,37,11,37 c-1.831,0-3.411,1.261-3.858,3.005C7.095,40.002,7.048,40,7,40c-2.757,0-5,2.243-5,5s2.243,5,5,5h14.875c0.276,0,0.5-0.224,0.5-0.5 s-0.224-0.5-0.5-0.5H7c-2.206,0-4-1.794-4-4s1.794-4,4-4c0.117,0,0.23,0.017,0.343,0.032l0.141,0.019 c0.021,0.003,0.041,0.004,0.062,0.004c0.246,0,0.462-0.185,0.495-0.437C8.232,39.125,9.504,38,11,38c0.885,0,1.723,0.401,2.301,1.1 c0.098,0.118,0.241,0.182,0.386,0.182c0.078,0,0.156-0.018,0.228-0.056c0.209-0.107,0.314-0.346,0.254-0.573 C14.054,38.218,14,37.852,14,37.5c0-2.481,2.019-4.5,4.5-4.5c2.381,0,4.347,1.872,4.474,4.263c0.011,0.208,0.15,0.387,0.349,0.45 c0.05,0.016,0.101,0.024,0.152,0.024c0.15,0,0.296-0.069,0.392-0.192C24.638,36.563,25.779,36,27,36c2.206,0,4,1.794,4,4 c0,0.117-0.017,0.23-0.032,0.343l-0.019,0.141c-0.016,0.134,0.022,0.268,0.106,0.373c0.084,0.105,0.207,0.172,0.34,0.185 C33.451,41.247,33,42.949,33,45c0,2.206,0.206,4-2,4h-6.125c-0.276,0-0.5,0.224-0.5,0.5s0.224,0.5,0.5,0.5H31c2.757,0,3-2.243,3-5 c0-2.397,0.311-4.413-2.003-4.877C31.999,40.082,32,40.041,32,40c0-2.757-2.243-5-5-5c-1.176,0-2.293,0.416-3.183,1.164 C23.219,33.76,21.055,32,18.5,32L18.5,32z"/><path fill="#472b29" d="M17,39c-1.403,0-2.609,0.999-2.913,2.341C13.72,41.119,13.301,41,12.875,41 c-1.202,0-2.198,0.897-2.353,2.068C10.319,43.022,10.126,43,9.937,43c-1.529,0-2.811,1.2-2.918,2.732 C7.01,45.87,7.114,45.99,7.251,46c0.006,0,0.012,0,0.018,0c0.13,0,0.24-0.101,0.249-0.232C7.607,44.497,8.669,43.5,9.937,43.5 c0.229,0,0.47,0.042,0.738,0.127c0.022,0.007,0.045,0.01,0.067,0.01c0.055,0,0.11-0.02,0.156-0.054 C10.962,43.537,11,43.455,11,43.375c0-1.034,0.841-1.875,1.875-1.875c0.447,0,0.885,0.168,1.231,0.473 c0.047,0.041,0.106,0.063,0.165,0.063c0.032,0,0.063-0.006,0.093-0.019c0.088-0.035,0.148-0.117,0.155-0.212 C14.623,40.512,15.712,39.5,17,39.5c0.208,0,0.425,0.034,0.682,0.107c0.023,0.007,0.047,0.01,0.07,0.01 c0.109,0,0.207-0.073,0.239-0.182c0.038-0.133-0.039-0.271-0.172-0.309C17.517,39.04,17.256,39,17,39L17,39z"/><path fill="#fff" d="M70.405,23H60.5c-0.276,0-0.5-0.224-0.5-0.5s0.224-0.5,0.5-0.5h9.905c0.276,0,0.5,0.224,0.5,0.5 S70.682,23,70.405,23z"/><path fill="#fff" d="M73.5,23h-1c-0.276,0-0.5-0.224-0.5-0.5s0.224-0.5,0.5-0.5h1c0.276,0,0.5,0.224,0.5,0.5 S73.777,23,73.5,23z"/><path fill="#fff" d="M78.491,25H69.5c-0.276,0-0.5-0.224-0.5-0.5s0.224-0.5,0.5-0.5h8.991c0.276,0,0.5,0.224,0.5,0.5 S78.767,25,78.491,25z"/><path fill="#fff" d="M67.5,25h-1c-0.276,0-0.5-0.224-0.5-0.5s0.224-0.5,0.5-0.5h1c0.276,0,0.5,0.224,0.5,0.5 S67.777,25,67.5,25z"/><path fill="#fff" d="M64.5,25h-2c-0.276,0-0.5-0.224-0.5-0.5s0.224-0.5,0.5-0.5h2c0.276,0,0.5,0.224,0.5,0.5 S64.777,25,64.5,25z"/><path fill="#fff" d="M70.5,27h-2c-0.276,0-0.5-0.224-0.5-0.5s0.224-0.5,0.5-0.5h2c0.276,0,0.5,0.224,0.5,0.5 S70.776,27,70.5,27z"/><path fill="#fff" d="M73.5,18c-0.177,0-0.823,0-1,0c-0.276,0-0.5,0.224-0.5,0.5s0.224,0.5,0.5,0.5c0.177,0,0.823,0,1,0 c0.276,0,0.5-0.224,0.5-0.5S73.776,18,73.5,18z"/><path fill="#fff" d="M73.5,20c-0.177,0-4.823,0-5,0c-0.276,0-0.5,0.224-0.5,0.5s0.224,0.5,0.5,0.5c0.177,0,4.823,0,5,0 c0.276,0,0.5-0.224,0.5-0.5S73.776,20,73.5,20z"/><path fill="#fff" d="M78.5,22c-0.177,0-2.823,0-3,0c-0.276,0-0.5,0.224-0.5,0.5s0.224,0.5,0.5,0.5c0.177,0,2.823,0,3,0 c0.276,0,0.5-0.224,0.5-0.5S78.776,22,78.5,22z"/><path fill="#fff" d="M32.5,80h-10c-0.276,0-0.5-0.224-0.5-0.5s0.224-0.5,0.5-0.5h10c0.276,0,0.5,0.224,0.5,0.5 S32.776,80,32.5,80z"/><path fill="#fff" d="M36.5,80h-2c-0.276,0-0.5-0.224-0.5-0.5s0.224-0.5,0.5-0.5h2c0.276,0,0.5,0.224,0.5,0.5 S36.776,80,36.5,80z"/><path fill="#fff" d="M41.5,82h-10c-0.276,0-0.5-0.224-0.5-0.5s0.224-0.5,0.5-0.5h10c0.276,0,0.5,0.224,0.5,0.5 S41.777,82,41.5,82z"/><path fill="#fff" d="M29.5,82h-1c-0.276,0-0.5-0.224-0.5-0.5s0.224-0.5,0.5-0.5h1c0.276,0,0.5,0.224,0.5,0.5 S29.776,82,29.5,82z"/><path fill="#fff" d="M26.375,82H24.5c-0.276,0-0.5-0.224-0.5-0.5s0.224-0.5,0.5-0.5h1.875c0.276,0,0.5,0.224,0.5,0.5 S26.651,82,26.375,82z"/><path fill="#fff" d="M35.5,78h-5c-0.276,0-0.5-0.224-0.5-0.5s0.224-0.5,0.5-0.5h5c0.276,0,0.5,0.224,0.5,0.5 S35.777,78,35.5,78z"/><path fill="#fff" d="M32.5,84h-2c-0.276,0-0.5-0.224-0.5-0.5s0.224-0.5,0.5-0.5h2c0.276,0,0.5,0.224,0.5,0.5 S32.776,84,32.5,84z"/><path fill="#fdfcef" d="M85.5,69v-0.5H78c-1.93,0-3.5-1.57-3.5-3.5c0-1.895,1.482-3.431,3.375-3.498l0.609-0.021l0.26-0.551 c0.409-0.868,1.295-1.43,2.256-1.43c0.142,0,0.28,0.012,0.417,0.035l0.97,0.172l0.186-0.967c0.362-1.878,2.014-3.24,3.928-3.24 c1.438,0,2.773,0.783,3.485,2.045l0.485,0.859l0.866-0.475c0.514-0.281,1.088-0.43,1.663-0.43c1.866,0,3.402,1.459,3.495,3.321 l0.034,0.671l0.633,0.223C98.561,62.207,99.5,63.527,99.5,65c0,1.93-1.57,3.5-3.5,3.5h-3.5V69H85.5z"/><path fill="#fdfcef" d="M92.5,68.5c0,0,1.567,0,3.5,0s3.5-1.567,3.5-3.5c0-1.781-1.335-3.234-3.055-3.455 C96.473,61.366,96.5,61.187,96.5,61c0-1.933-1.567-3.5-3.5-3.5c-1.032,0-1.95,0.455-2.59,1.165 c-0.384-1.808-1.987-3.165-3.91-3.165c-2.209,0-4,1.791-4,4c0,0.191,0.03,0.374,0.056,0.558C82.128,59.714,81.592,59.5,81,59.5 c-1.228,0-2.245,0.887-2.455,2.055C78.366,61.527,78.187,61.5,78,61.5c-1.933,0-3.5,1.567-3.5,3.5s1.567,3.5,3.5,3.5s7.5,0,7.5,0 V69h7V68.5z"/><path fill="#472b29" d="M94.25,64C94.112,64,94,63.888,94,63.75c0-1.223,0.995-2.218,2.218-2.218 c0.034,0.009,0.737-0.001,1.244,0.136c0.133,0.036,0.212,0.173,0.176,0.306c-0.036,0.134-0.173,0.213-0.306,0.176 c-0.444-0.12-1.1-0.12-1.113-0.118c-0.948,0-1.719,0.771-1.719,1.718C94.5,63.888,94.388,64,94.25,64z"/><circle cx="87.5" cy="68.5" r=".5" fill="#472b29"/><path fill="#472b29" d="M92.5,69c-0.275,0-0.5-0.225-0.5-0.5s0.225-0.5,0.5-0.5H96c1.654,0,3-1.346,3-3 c0-1.496-1.126-2.769-2.618-2.959c-0.13-0.017-0.257-0.09-0.335-0.195c-0.082-0.108-0.116-0.248-0.095-0.379 C95.984,61.258,96,61.131,96,61c0-1.654-1.346-3-3-3c-0.85,0-1.638,0.355-2.219,1.001c-0.095,0.104-0.23,0.165-0.372,0.165 c-0.042,0-0.085-0.006-0.127-0.018c-0.187-0.051-0.322-0.196-0.361-0.38C89.58,57.164,88.142,56,86.5,56c-1.93,0-3.5,1.57-3.5,3.5 c0,0.121,0.014,0.238,0.032,0.354c0.039,0.272-0.057,0.503-0.233,0.604c-0.094,0.053-0.193,0.081-0.289,0.081 c-0.103,0-0.189-0.029-0.266-0.091C81.877,60.155,81.447,60,81,60c-0.967,0-1.793,0.691-1.963,1.645 c-0.043,0.237-0.249,0.41-0.491,0.41l-0.117-0.011C78.257,62.016,78.13,62,78,62c-1.654,0-3,1.346-3,3s1.346,3,3,3h7.5 c0.275,0,0.5,0.225,0.5,0.5S85.775,69,85.5,69H78c-2.206,0-4-1.794-4-4c0-2.041,1.59-3.79,3.62-3.982l0.519-0.049l0.258-0.452 C78.927,59.581,79.925,59,81,59l0.952,0.038l0.216-0.761C82.716,56.348,84.497,55,86.5,55c1.491,0,2.881,0.736,3.718,1.969 l0.463,0.684l0.759-0.326C91.937,57.112,92.476,57,93,57c2.03,0,3.738,1.52,3.974,3.534l0.067,0.576l0.534,0.228 C99.048,61.966,100,63.403,100,65c0,2.206-1.794,4-4,4H92.5z"/><path fill="#472b29" d="M96,69h-3.5c-0.276,0-0.5-0.224-0.5-0.5s0.224-0.5,0.5-0.5H96c1.654,0,3-1.346,3-3 c0-1.496-1.125-2.768-2.618-2.959c-0.134-0.018-0.255-0.088-0.336-0.196s-0.115-0.244-0.094-0.377C95.975,61.314,96,61.16,96,61 c0-1.654-1.346-3-3-3c-0.85,0-1.638,0.355-2.219,1c-0.125,0.139-0.321,0.198-0.5,0.148c-0.182-0.049-0.321-0.195-0.36-0.379 C89.58,57.165,88.141,56,86.5,56c-1.93,0-3.5,1.57-3.5,3.5c0,0.143,0.021,0.28,0.041,0.418c0.029,0.203-0.063,0.438-0.242,0.54 c-0.179,0.102-0.396,0.118-0.556-0.01C81.878,60.155,81.449,60,81,60c-0.966,0-1.792,0.691-1.963,1.644 c-0.048,0.267-0.296,0.446-0.569,0.405C78.314,62.025,78.16,62,78,62c-1.654,0-3,1.346-3,3s1.346,3,3,3h7.5 c0.276,0,0.5,0.224,0.5,0.5S85.776,69,85.5,69H78c-2.206,0-4-1.794-4-4s1.794-4,4-4c0.059,0,0.116,0.002,0.174,0.006 C78.588,59.82,79.711,59,81,59c0.349,0,0.689,0.061,1.011,0.18C82.176,56.847,84.126,55,86.5,55c1.831,0,3.466,1.127,4.153,2.774 C91.333,57.276,92.155,57,93,57c2.206,0,4,1.794,4,4c0,0.048-0.001,0.095-0.004,0.142C98.739,61.59,100,63.169,100,65 C100,67.206,98.206,69,96,69z"/><path fill="#472b29" d="M90.5,68c-0.159,0-0.841,0-1,0c-0.276,0-0.5,0.224-0.5,0.5s0.224,0.5,0.5,0.5c0.159,0,0.841,0,1,0 c0.276,0,0.5-0.224,0.5-0.5S90.776,68,90.5,68z"/><path fill="#5a5c70" d="M51.999,73c-0.894,0-1.803-0.052-2.7-0.154c-10.487-1.202-18.96-9.686-20.146-20.172	c-0.785-6.929,1.521-13.698,6.337-18.66l3.276,3.814C35.688,41.153,34,45.458,34,50c0,2.886,0.681,5.665,2.021,8.259L38,58	l7.805-7.387L50,42.921v11.677L42,63l-0.208,1.813C44.814,66.898,48.345,68,52,68s7.186-1.102,10.208-3.187L62,63l-8-8.402V42.921	l4.195,7.692L66,58l1.979,0.259C69.319,55.665,70,52.886,70,50c0-4.542-1.688-8.847-4.766-12.172l3.277-3.814	C72.699,38.326,75,43.983,75,50c0,6.132-2.396,11.905-6.746,16.255C63.904,70.604,58.132,73,52.001,73C52,73,52,73,51.999,73z"/><path fill="#ef9922" d="M52,32c3.692,0,7.214,1.106,10.217,3.204l3.274-3.812C61.552,28.517,56.898,27,52,27	s-9.552,1.517-13.491,4.392l3.274,3.812C44.785,33.106,48.308,32,52,32z"/><path fill="#472b29" d="M52,27.4c4.668,0,9.109,1.401,12.903,4.062l-2.757,3.209C59.143,32.659,55.652,31.6,52,31.6	s-7.142,1.059-10.147,3.071l-2.757-3.209C42.891,28.801,47.332,27.4,52,27.4 M68.526,34.61C72.451,38.807,74.6,44.234,74.6,50	c0,12.462-10.138,22.6-22.6,22.6c-0.879,0-1.773-0.051-2.656-0.152c-10.304-1.18-18.63-9.515-19.795-19.819	c-0.754-6.663,1.399-13.175,5.925-18.019l2.758,3.211C35.239,41.183,33.6,45.476,33.6,50c0,2.951,0.695,5.791,2.066,8.443	c0.203,0.393,0.58,0.667,1.016,0.738c0.076,0.012,0.152,0.019,0.228,0.019c0.36,0,0.709-0.139,0.972-0.392l8.09-7.8	c0.103-0.099,0.189-0.213,0.257-0.337l3.371-6.18v9.946l-8.25,8.584c-0.285,0.296-0.425,0.702-0.384,1.111s0.26,0.779,0.598,1.012	C44.655,67.274,48.263,68.4,52,68.4s7.345-1.126,10.435-3.258c0.338-0.233,0.557-0.603,0.598-1.012	c0.041-0.409-0.099-0.815-0.384-1.111l-8.25-8.584V44.49l3.371,6.18c0.068,0.125,0.155,0.239,0.257,0.337l8.09,7.8	c0.263,0.254,0.612,0.392,0.972,0.392c0.075,0,0.152-0.006,0.228-0.019c0.436-0.072,0.813-0.346,1.016-0.738	C69.705,55.791,70.4,52.951,70.4,50c0-4.524-1.639-8.817-4.632-12.179L68.526,34.61 M52,26c-5.46,0-10.49,1.83-14.522,4.914	c-0.229,0.175-0.26,0.51-0.072,0.729l3.922,4.566c0.097,0.113,0.234,0.171,0.372,0.171c0.104,0,0.209-0.033,0.3-0.1	C44.807,34.21,48.266,33,52,33s7.193,1.21,10,3.279c0.091,0.067,0.196,0.1,0.3,0.1c0.139,0,0.275-0.058,0.372-0.171l3.922-4.566	c0.188-0.218,0.156-0.554-0.072-0.729C62.49,27.83,57.46,26,52,26L52,26z M68.487,32.78c-0.143,0-0.286,0.06-0.387,0.177	l-3.923,4.567c-0.168,0.196-0.155,0.484,0.025,0.669C67.173,41.247,69,45.414,69,50c0,2.81-0.7,5.46-1.91,7.8L59,50l-5.067-9.289	c-0.098-0.179-0.264-0.26-0.43-0.26c-0.252,0-0.503,0.187-0.503,0.498V55l8.64,8.99C58.9,65.88,55.58,67,52,67s-6.9-1.12-9.64-3.01	L51,55V40.949c0-0.311-0.25-0.498-0.503-0.498c-0.166,0-0.333,0.081-0.43,0.26L45,50l-8.09,7.8C35.7,55.46,35,52.81,35,50	c0-4.586,1.827-8.753,4.797-11.807c0.18-0.185,0.194-0.473,0.025-0.669L35.9,32.957c-0.1-0.117-0.244-0.177-0.387-0.177	c-0.126,0-0.253,0.047-0.35,0.142c-5.031,4.954-7.884,12.093-7.005,19.864c1.241,10.968,10.061,19.796,21.027,21.052	C50.134,73.947,51.073,74,52,74c13.23,0,24-10.77,24-24c0-6.678-2.74-12.722-7.164-17.078C68.74,32.827,68.613,32.78,68.487,32.78	L68.487,32.78z"/><line x1="61.763" x2="64.5" y1="59.651" y2="62.5" fill="none" stroke="#472b29" stroke-linecap="round" stroke-linejoin="round" stroke-miterlimit="10" stroke-width=".5"/><line x1="58.823" x2="60.377" y1="56.592" y2="58.209" fill="none" stroke="#472b29" stroke-linecap="round" stroke-linejoin="round" stroke-miterlimit="10" stroke-width=".5"/><line x1="56.246" x2="57.436" y1="53.911" y2="55.149" fill="none" stroke="#472b29" stroke-linecap="round" stroke-linejoin="round" stroke-miterlimit="10" stroke-width=".5"/><path fill="none" stroke="#472b29" stroke-linecap="round" stroke-linejoin="round" stroke-miterlimit="10" stroke-width=".5" d="M50.233,29.073C50.815,29.025,51.405,29,52,29c0.395,0,0.787,0.011,1.177,0.032"/><path fill="none" stroke="#472b29" stroke-linecap="round" stroke-linejoin="round" stroke-miterlimit="10" stroke-width=".5" d="M42.434,31.3c1.803-0.924,3.757-1.595,5.816-1.967"/><path fill="none" stroke="#472b29" stroke-linecap="round" stroke-linejoin="round" stroke-miterlimit="10" stroke-width=".5" d="M31.006,49.5c0.031-1.328,0.185-2.625,0.452-3.881"/><path fill="none" stroke="#472b29" stroke-linecap="round" stroke-linejoin="round" stroke-miterlimit="10" stroke-width=".5" d="M33.327,59.618c-1.271-2.462-2.069-5.208-2.274-8.118"/><path fill="none" stroke="#472b29" stroke-linecap="round" stroke-linejoin="round" stroke-miterlimit="10" stroke-width=".5" d="M43.5,69.209c-3.456-1.532-6.422-3.969-8.596-7.011"/></svg>